# xmcd CD database file
#
# Track frame offsets:
#	150
#	19620
#	34895
#	54470
#	69497
#	86265
#	107337
#	120752
#	141155
#	158827
#	178387
#	193790
#
# Disc length: 2846 seconds
#
# Revision: 0
# Processed by: cddbd v1.5PL3 Copyright (c) Steve Scherf et al.
# Submitted via: CDex 1.50beta9
#
DISCID=960b1c0c
DTITLE=山口由子 - Hotel Scandinavia
DYEAR=1900
DGENRE=J-Pop
TTITLE0=泣かないで･･･
TTITLE1=All the little things
TTITLE2=For you 〜ふたつの願い〜
TTITLE3=‘恋人と呼ばないで’
TTITLE4=見つめて
TTITLE5=Hotel Scandinavia
TTITLE6=罪と罰
TTITLE7=若葉の頃
TTITLE8=バケーション!!
TTITLE9=Never Say goodbye
TTITLE10=あなたとワインとおしゃべり
TTITLE11=Never the end of the world
EXTD=
EXTT0=
EXTT1=
EXTT2=
EXTT3=
EXTT4=
EXTT5=
EXTT6=
EXTT7=
EXTT8=
EXTT9=
EXTT10=
EXTT11=
PLAYORDER=
